<svg xmlns="http://www.w3.org/2000/svg" xmlns:xlink="http://www.w3.org/1999/xlink" version="1.1"
    x="0px" y="0px" viewBox="0 0 64 64" enable-background="new 0 0 64 64"
    xml:space="preserve">
    <g fill="white">
        <path  d="M47.773,55.218c0.293,0.468,0.152,1.085-0.316,1.378c-1.846,1.155-3.822,2.103-5.873,2.813   c-0.109,0.037-0.219,0.055-0.328,0.055c-0.414,0-0.801-0.259-0.945-0.673c-0.18-0.521,0.096-1.091,0.619-1.272   c1.908-0.661,3.748-1.542,5.467-2.618C46.863,54.606,47.48,54.748,47.773,55.218z M54.92,17.585   c0.191,0.301,0.516,0.466,0.848,0.466c0.182,0,0.367-0.05,0.533-0.155c0.467-0.295,0.605-0.913,0.311-1.379   c-1.16-1.835-2.531-3.544-4.076-5.08c-0.391-0.39-1.023-0.387-1.414,0.004c-0.389,0.392-0.387,1.025,0.004,1.414   C52.564,14.286,53.84,15.877,54.92,17.585z M40.902,6.472c1.91,0.659,3.75,1.539,5.471,2.614c0.164,0.103,0.348,0.152,0.529,0.152   c0.332,0,0.658-0.167,0.848-0.47c0.293-0.469,0.15-1.085-0.316-1.378c-1.848-1.155-3.826-2.1-5.879-2.808   c-0.525-0.179-1.092,0.097-1.271,0.619C40.104,5.722,40.379,6.292,40.902,6.472z M58.916,28.952   c0.057,0.511,0.49,0.889,0.992,0.889c0.037,0,0.074-0.002,0.113-0.006c0.549-0.062,0.943-0.556,0.883-1.105   c-0.244-2.164-0.732-4.3-1.453-6.35c-0.182-0.521-0.75-0.794-1.275-0.612c-0.52,0.183-0.795,0.754-0.611,1.275   C58.236,24.95,58.689,26.938,58.916,28.952z M60.023,34.136c-0.537-0.053-1.043,0.334-1.104,0.884   c-0.225,2.015-0.678,4.005-1.346,5.913c-0.182,0.521,0.092,1.092,0.613,1.274c0.109,0.039,0.221,0.057,0.33,0.057   c0.414,0,0.801-0.258,0.943-0.669c0.719-2.052,1.205-4.189,1.447-6.354C60.969,34.691,60.572,34.197,60.023,34.136z M56.314,46.08   c-0.467-0.294-1.084-0.155-1.379,0.312c-1.08,1.712-2.357,3.305-3.793,4.734c-0.391,0.391-0.393,1.023-0.002,1.415   c0.195,0.196,0.451,0.294,0.709,0.294c0.254,0,0.51-0.097,0.705-0.291c1.541-1.536,2.912-3.246,4.072-5.084   C56.922,46.992,56.781,46.375,56.314,46.08z M34.979,58.848C34.023,58.948,33.051,59,32.086,59c-14.887,0-27-12.112-27-27   s12.113-27,27-27c0.967,0,1.939,0.051,2.891,0.153c0.037,0.004,0.072,0.006,0.107,0.006c0.506,0,0.939-0.381,0.994-0.894   c0.059-0.549-0.34-1.042-0.889-1.1C34.168,3.055,33.123,3,32.086,3c-15.99,0-29,13.009-29,29c0,15.99,13.01,29,29,29   c1.035,0,2.08-0.055,3.104-0.164c0.549-0.058,0.947-0.551,0.889-1.1S35.535,58.79,34.979,58.848z M48.664,32.001   c0,1.336-0.824,2.546-2.318,3.407L26.99,46.584c-0.84,0.484-1.666,0.73-2.455,0.73c-2.063,0-3.449-1.663-3.449-4.139V20.825   c0-2.476,1.387-4.139,3.447-4.139c0.791,0,1.617,0.246,2.457,0.731l19.355,11.173C47.842,29.454,48.664,30.666,48.664,32.001z    M46.664,32c0-0.583-0.48-1.194-1.318-1.677L25.99,19.149c-0.523-0.303-1.027-0.463-1.457-0.463c-1.307,0-1.447,1.496-1.447,2.139   v22.351c0,0.644,0.141,2.139,1.449,2.139c0.428,0,0.932-0.16,1.455-0.463l19.355-11.176C46.184,33.193,46.664,32.583,46.664,32z"/></g>
    </svg>