<svg xmlns="http://www.w3.org/2000/svg" xmlns:xlink="http://www.w3.org/1999/xlink" version="1.1"
    x="0px" y="0px" viewBox="0 0 100 100" style="enable-background:new 0 0 100 100;"
    xml:space="preserve"><style type="text/css">
	.st0{fill:none;stroke:#000000;stroke-width:4;stroke-linecap:round;stroke-linejoin:round;stroke-miterlimit:10;}
	.st1{fill:none;stroke:#000000;stroke-width:4;stroke-linejoin:round;stroke-miterlimit:10;}
	.st2{fill:none;stroke:#000000;stroke-width:6;stroke-linejoin:round;stroke-miterlimit:10;}
	.st3{fill:none;stroke:#000000;stroke-width:6;stroke-miterlimit:10;}
	.st4{fill:none;stroke:#000000;stroke-width:6;stroke-linecap:round;stroke-miterlimit:10;}
</style>
    <g><path d="M85.9,47.7c-1.1-19.1-16.4-34.4-35.5-35.6c-10.8-0.7-21,3-28.8,10.5C14.1,29.9,9.8,40.2,10,50.8c0.4,20,17,36.6,36.9,37.2   c0.4,0,0.7,0,1.1,0c5.2,0,10.3-1.1,15.1-3.1c2.5-1.1,5.4-1.2,8.1-0.4l12.2,3.5c0.7,0.2,1.5,0,2-0.5c0.5-0.5,0.7-1.3,0.5-2   l-3.7-11.4c-0.9-2.8-0.8-5.8,0.4-8.3C85.2,60,86.3,53.9,85.9,47.7z M79,64c-1.6,3.5-1.8,7.4-0.6,11.2L81,83l-8.6-2.5   c-3.7-1-7.5-0.8-10.8,0.6c-4.6,2-9.5,2.9-14.5,2.8c-17.8-0.5-32.7-15.4-33-33.3c-0.2-9.5,3.6-18.7,10.5-25.3   C30.9,19.3,39.2,16,48,16c0.7,0,1.5,0,2.2,0.1c17.1,1.1,30.7,14.8,31.7,31.9C82.3,53.5,81.3,58.9,79,64z"/>
        </g>
</svg>